<svg width="69" height="68" viewBox="0 0 69 68" fill="none" xmlns="http://www.w3.org/2000/svg">
<path fill-rule="evenodd" clip-rule="evenodd" d="M23.537 23.477C26.5063 20.553 30.0452 19.1052 34.2555 19.1052C38.4658 19.1052 42.0047 20.5502 44.974 23.477C47.9433 26.4038 49.3997 29.8747 49.3997 34C49.3997 38.1253 47.9433 41.5933 44.974 44.5202C42.0047 47.447 38.4658 48.892 34.2555 48.892C30.0452 48.892 26.5063 47.447 23.537 44.5202C20.5677 41.5933 19.1113 38.1225 19.1113 34C19.1113 29.8775 20.5677 26.401 23.537 23.477ZM43.3052 34.0028L28.5888 42.245V25.7493L43.3052 34.0028Z" fill="#C2AF84"/>
<path fill-rule="evenodd" clip-rule="evenodd" d="M54.2897 53.737C59.8242 48.2857 62.5904 41.7067 62.5885 34C62.5885 26.2914 59.8223 19.7115 54.2897 14.2602C48.7553 8.80883 42.0771 6.08316 34.2552 6.08316C26.4333 6.08316 19.7552 8.80883 14.2207 14.2602C8.68626 19.7115 5.91999 26.2914 5.92188 34C5.92188 41.7067 8.68815 48.2857 14.2207 53.737C19.7552 59.1883 26.4333 61.914 34.2552 61.914C42.079 61.914 48.7572 59.1883 54.2897 53.737ZM34.2552 15.3935C29.0787 15.3935 24.602 17.2182 20.9329 20.8335C17.2609 24.4517 15.3994 28.8717 15.3994 34C15.3994 39.1255 17.2609 43.5483 20.9329 47.1637C24.602 50.779 29.0759 52.6037 34.2552 52.6037C39.4345 52.6037 43.9084 50.779 47.5775 47.1637C51.2495 43.5483 53.111 39.1255 53.111 34C53.111 28.8717 51.2495 24.4517 47.5775 20.8335C43.9084 17.2182 39.4317 15.3935 34.2552 15.3935Z" fill="#C2AF84"/>
</svg>
