<svg width="44" height="44" viewBox="0 0 44 44" fill="none" xmlns="http://www.w3.org/2000/svg">
<path d="M30.2207 21.956L41.4975 12.1587V31.6415L30.2207 21.956ZM15.6897 23.6152L19.6497 27.0527C20.2712 27.5807 21.0815 27.8997 21.967 27.8997H21.9982H22.022C22.9093 27.8997 23.7197 27.5788 24.3485 27.0472L24.343 27.0508L28.303 23.6133L40.3407 33.9515H3.6575L15.6897 23.6152ZM3.641 9.83584H40.3627L22.7242 25.1552C22.5267 25.3136 22.2807 25.3991 22.0275 25.3972H22.0018H21.978C21.724 25.399 21.4772 25.3128 21.2795 25.1533L21.2813 25.1552L3.641 9.83584ZM2.5025 12.1568L13.7775 21.9542L2.5025 31.6342V12.1568ZM42.1025 7.68168C41.6625 7.46168 41.1455 7.33334 40.5973 7.33334H3.40817C2.87703 7.33545 2.3534 7.45898 1.87733 7.69451L1.8975 7.68534C1.32892 7.96673 0.85011 8.40114 0.5149 8.93975C0.17969 9.47835 0.00137383 10.0998 0 10.7342L0 33.0495C0.000970574 33.9526 0.360163 34.8185 0.998764 35.4571C1.63737 36.0957 2.50322 36.4549 3.40633 36.4558H40.5918C41.495 36.4549 42.3608 36.0957 42.9994 35.4571C43.638 34.8185 43.9972 33.9526 43.9982 33.0495V10.7342C43.9982 9.40134 43.23 8.24634 42.1117 7.69084L42.0915 7.68168H42.1025Z" fill="#7C7865"/>
</svg>
