<svg width="44" height="44" viewBox="0 0 44 44" fill="none" xmlns="http://www.w3.org/2000/svg">
<path d="M34.9245 9.00166C33.2434 7.30419 31.2414 5.95827 29.0349 5.04233C26.8285 4.12639 24.4618 3.65875 22.0728 3.66666C12.0628 3.66666 3.90448 11.825 3.90448 21.835C3.90448 25.0433 4.74781 28.16 6.32448 30.91L3.75781 40.3333L13.3828 37.8033C16.0411 39.2517 19.0295 40.0217 22.0728 40.0217C32.0828 40.0217 40.2411 31.8633 40.2411 21.8533C40.2411 16.995 38.3528 12.43 34.9245 9.00166ZM22.0728 36.9417C19.3595 36.9417 16.7011 36.2083 14.3728 34.8333L13.8228 34.5033L8.10281 36.0067L9.62448 30.4333L9.25781 29.865C7.74998 27.4579 6.94951 24.6753 6.94781 21.835C6.94781 13.5117 13.7311 6.72833 22.0545 6.72833C26.0878 6.72833 29.8828 8.305 32.7245 11.165C34.1318 12.5654 35.247 14.2313 36.0055 16.0661C36.7639 17.9009 37.1505 19.868 37.1428 21.8533C37.1795 30.1767 30.3961 36.9417 22.0728 36.9417ZM30.3595 25.6483C29.9011 25.4283 27.6645 24.3283 27.2611 24.1633C26.8395 24.0167 26.5461 23.9433 26.2345 24.3833C25.9228 24.8417 25.0611 25.8683 24.8045 26.1617C24.5478 26.4733 24.2728 26.51 23.8145 26.2717C23.3561 26.0517 21.8895 25.5567 20.1661 24.0167C18.8095 22.8067 17.9111 21.3217 17.6361 20.8633C17.3795 20.405 17.5995 20.1667 17.8378 19.9283C18.0395 19.7267 18.2961 19.3967 18.5161 19.14C18.7361 18.8833 18.8278 18.6817 18.9745 18.3883C19.1211 18.0767 19.0478 17.82 18.9378 17.6C18.8278 17.38 17.9111 15.1433 17.5445 14.2267C17.1778 13.3467 16.7928 13.4567 16.5178 13.4383H15.6378C15.3261 13.4383 14.8495 13.5483 14.4278 14.0067C14.0245 14.465 12.8511 15.565 12.8511 17.8017C12.8511 20.0383 14.4828 22.2017 14.7028 22.495C14.9228 22.8067 17.9111 27.39 22.4578 29.3517C23.5395 29.8283 24.3828 30.1033 25.0428 30.305C26.1245 30.6533 27.1145 30.5983 27.9028 30.4883C28.7828 30.36 30.5978 29.3883 30.9645 28.325C31.3495 27.2617 31.3495 26.3633 31.2211 26.1617C31.0928 25.96 30.8178 25.8683 30.3595 25.6483Z" fill="#7C7865"/>
</svg>
