<svg width="65" height="66" viewBox="0 0 65 66" fill="none" xmlns="http://www.w3.org/2000/svg">
<path d="M36.8612 33.6682C36.8448 34.5394 36.5741 35.386 36.0834 36.1008C35.5926 36.8155 34.9039 37.3662 34.1045 37.6831C33.3052 38 32.4312 38.0687 31.5933 37.8807C30.7554 37.6926 29.9914 37.2561 29.398 36.6267C28.8047 35.9972 28.4088 35.203 28.2605 34.3448C28.1122 33.4866 28.2182 32.603 28.565 31.806C28.9119 31.009 29.4839 30.3346 30.2087 29.8681C30.9335 29.4016 31.7783 29.1641 32.6362 29.1857C33.7761 29.2286 34.8548 29.7206 35.6435 30.5574C36.4323 31.3942 36.869 32.51 36.8612 33.6682Z" fill="#C2AF84"/>
<path d="M39.983 19.8907H25.2903C23.8364 19.8907 22.4421 20.4772 21.4141 21.521C20.3861 22.5648 19.8086 23.9806 19.8086 25.4567V40.711C19.8086 41.4419 19.9504 42.1657 20.2259 42.841C20.5013 43.5163 20.9051 44.1299 21.4141 44.6468C21.9232 45.1636 22.5275 45.5736 23.1925 45.8533C23.8576 46.133 24.5704 46.277 25.2903 46.277H39.983C40.7028 46.277 41.4156 46.133 42.0807 45.8533C42.7458 45.5736 43.3501 45.1636 43.8591 44.6468C44.3681 44.1299 44.7719 43.5163 45.0474 42.841C45.3229 42.1657 45.4646 41.4419 45.4646 40.711V25.4842C45.4675 24.7512 45.3278 24.0248 45.0537 23.3466C44.7796 22.6685 44.3763 22.0519 43.8671 21.5323C43.3579 21.0127 42.7527 20.6002 42.0861 20.3185C41.4196 20.0368 40.7049 19.8915 39.983 19.8907ZM32.6353 41.129C31.1808 41.1623 29.7495 40.7549 28.5241 39.9586C27.2987 39.1624 26.3347 38.0135 25.7552 36.6585C25.1758 35.3035 25.007 33.8039 25.2705 32.3512C25.5341 30.8984 26.2179 29.5583 27.2349 28.5019C28.2518 27.4455 29.5556 26.7207 30.98 26.42C32.4044 26.1193 33.8847 26.2564 35.232 26.8137C36.5794 27.3711 37.7326 28.3234 38.5445 29.5492C39.3565 30.7749 39.7903 32.2185 39.7907 33.6957C39.8025 34.6611 39.6267 35.6194 39.2733 36.5157C38.9199 37.4121 38.3959 38.2288 37.7313 38.9192C37.0666 39.6097 36.2744 40.1602 35.4 40.5394C34.5256 40.9186 33.5861 41.1189 32.6353 41.129ZM40.5869 26.2652C40.4082 26.2653 40.2313 26.2291 40.0665 26.1589C39.9018 26.0886 39.7524 25.9857 39.6273 25.8561C39.5022 25.7265 39.4039 25.5729 39.338 25.4042C39.2721 25.2355 39.24 25.0552 39.2436 24.8737C39.2436 24.5047 39.388 24.1508 39.645 23.8898C39.902 23.6289 40.2506 23.4822 40.614 23.4822C40.9775 23.4822 41.326 23.6289 41.583 23.8898C41.84 24.1508 41.9844 24.5047 41.9844 24.8737C41.9898 25.0702 41.9533 25.2655 41.8775 25.4463C41.8016 25.6271 41.6881 25.7891 41.5449 25.9213C41.4016 26.0534 41.2319 26.1526 41.0474 26.2119C40.8629 26.2713 40.668 26.2895 40.4759 26.2652H40.5869Z" fill="#C2AF84"/>
<path d="M32.6351 5.50001C25.4522 5.46354 18.5491 8.32588 13.4446 13.4573C8.34013 18.5888 5.45227 25.5691 5.41635 32.8625C5.38044 40.156 8.19941 47.1652 13.2531 52.3482C18.3068 57.5313 25.1813 60.4635 32.3643 60.5C35.9209 60.5181 39.4462 59.8246 42.7389 58.4593C46.0316 57.094 49.0272 55.0835 51.5547 52.5427C54.0822 50.0018 56.0921 46.9804 57.4696 43.6508C58.8471 40.3213 59.5652 36.7489 59.583 33.1375C59.6008 29.5262 58.9179 25.9466 57.5732 22.6032C56.2286 19.2599 54.2486 16.2182 51.7462 13.6518C49.2439 11.0854 46.2682 9.04463 42.9891 7.64594C39.71 6.24725 36.1917 5.51807 32.6351 5.50001ZM49.0828 40.4305C49.0904 41.6642 48.8566 42.8872 48.3952 44.0286C47.9338 45.1699 47.2539 46.2069 46.3948 47.0795C45.5358 47.952 44.5147 48.6427 43.3907 49.1115C42.2668 49.5804 41.0624 49.8181 39.8474 49.8108H25.4282C24.2132 49.8184 23.0087 49.5811 21.8847 49.1126C20.7606 48.6441 19.7393 47.9537 18.88 47.0814C18.0207 46.2091 17.3405 45.1723 16.8787 44.0311C16.417 42.8899 16.1829 41.667 16.1901 40.4333V25.7895C16.1826 24.5558 16.4163 23.3328 16.8777 22.1914C17.3391 21.0501 18.019 20.0131 18.8781 19.1406C19.7372 18.268 20.7582 17.5773 21.8822 17.1085C23.0061 16.6396 24.2105 16.402 25.4255 16.4093H39.8474C41.0622 16.402 42.2664 16.6395 43.3901 17.1082C44.5139 17.5769 45.5348 18.2674 46.3938 19.1396C47.2529 20.0118 47.9329 21.0485 48.3944 22.1895C48.856 23.3306 49.09 24.5532 49.0828 25.7868V40.4305Z" fill="#C2AF84"/>
</svg>
