<svg width="44" height="44" viewBox="0 0 44 44" fill="none" xmlns="http://www.w3.org/2000/svg">
<path d="M21.9995 1.43C18.0859 1.28092 14.2723 2.68677 11.392 5.34042C8.51158 7.99407 6.7985 11.6798 6.62695 15.5925C6.62695 29.3425 17.297 39.27 20.8445 42.1575C21.1696 42.4257 21.578 42.5724 21.9995 42.5724C22.421 42.5724 22.8293 42.4257 23.1545 42.1575C26.702 39.27 37.372 29.425 37.372 15.5925C37.2004 11.6798 35.4873 7.99407 32.607 5.34042C29.7266 2.68677 25.913 1.28092 21.9995 1.43ZM21.9995 38.5C19.444 36.2547 17.1722 33.7058 15.2345 30.91C11.9921 26.4494 10.1884 21.1056 10.0645 15.5925C10.235 12.5913 11.5855 9.77932 13.8214 7.77009C16.0573 5.76085 18.9972 4.71744 21.9995 4.8675C25.0018 4.71744 27.9416 5.76085 30.1775 7.77009C32.4134 9.77932 33.7639 12.5913 33.9345 15.5925C33.9345 26.8125 25.7945 35.2825 21.9995 38.5Z" fill="#7C7865"/>
<path d="M21.9995 6.985C21.0067 6.94456 20.0157 7.1016 19.084 7.44702C18.1524 7.79244 17.2986 8.31936 16.5721 8.99724C15.8456 9.67511 15.2609 10.4905 14.8519 11.396C14.4429 12.3015 14.2177 13.2793 14.1895 14.2725C14.2214 15.2646 14.449 16.2406 14.8592 17.1444C15.2695 18.0483 15.8543 18.8621 16.58 19.5393C17.3057 20.2165 18.1581 20.7436 19.0881 21.0904C20.0182 21.4371 21.0075 21.5967 21.9995 21.56C23.9962 21.6194 25.9353 20.8864 27.3934 19.521C28.8515 18.1556 29.7102 16.2688 29.782 14.2725C29.75 13.2828 29.5233 12.3091 29.1147 11.4071C28.7062 10.5052 28.1239 9.69252 27.4011 9.01571C26.6784 8.3389 25.8293 7.81119 24.9024 7.46274C23.9755 7.1143 22.9891 6.95195 21.9995 6.985ZM21.9995 18.1225C20.9168 18.1826 19.8545 17.8111 19.0453 17.0895C18.236 16.3679 17.7458 15.3549 17.682 14.2725C17.7458 13.1901 18.236 12.1771 19.0453 11.4555C19.8545 10.7339 20.9168 10.3624 21.9995 10.4225C23.0849 10.3622 24.1502 10.7328 24.9639 11.4538C25.7775 12.1747 26.2737 13.1877 26.3445 14.2725C26.2737 15.3573 25.7775 16.3703 24.9639 17.0912C24.1502 17.8122 23.0849 18.1828 21.9995 18.1225Z" fill="#7C7865"/>
</svg>
